<svg xmlns="http://www.w3.org/2000/svg" xmlns:xlink="http://www.w3.org/1999/xlink" width="500" zoomAndPan="magnify" viewBox="0 0 375 374.999991" height="500" preserveAspectRatio="xMidYMid meet" version="1.0"><defs><g/></defs><path fill="#0b5eb1" d="M 168.359375 197.992188 C 158.8125 215.15625 139.371094 223.320312 119.710938 223.320312 L 40.839844 223.320312 C 122.945312 213.070312 180.128906 172.0625 187.457031 114.945312 C 194.789062 172.0625 251.972656 213.070312 334.078125 223.320312 L 255.203125 223.320312 C 235.546875 223.320312 216.105469 215.15625 206.558594 197.992188 C 196.222656 179.414062 189.636719 158.394531 187.457031 135.449219 C 185.277344 158.394531 178.695312 179.414062 168.359375 197.992188 Z M 168.359375 197.992188 " fill-opacity="1" fill-rule="nonzero"/><path fill="#5e17eb" d="M 123.253906 191.925781 C 118.648438 194.515625 113.804688 196.949219 108.730469 199.214844 C 105.847656 189.269531 104.789062 178.839844 105.632812 168.449219 C 106.753906 154.699219 111.171875 141.445312 118.503906 129.863281 C 125.832031 118.277344 135.847656 108.714844 147.65625 102.027344 C 159.464844 95.339844 172.707031 91.734375 186.207031 91.523438 C 199.710938 91.3125 213.054688 94.507812 225.054688 100.824219 C 237.058594 107.140625 247.355469 116.386719 255.023438 127.738281 C 262.695312 139.089844 267.511719 152.199219 269.039062 165.90625 C 270.289062 177.117188 269.308594 188.445312 266.1875 199.214844 C 261.113281 196.949219 256.269531 194.515625 251.664062 191.925781 C 253.605469 184.050781 254.148438 175.859375 253.242188 167.742188 C 252.011719 156.691406 248.128906 146.117188 241.945312 136.964844 C 235.757812 127.8125 227.457031 120.355469 217.777344 115.261719 C 208.097656 110.167969 197.335938 107.59375 186.449219 107.761719 C 175.5625 107.929688 164.886719 110.839844 155.363281 116.234375 C 145.839844 121.625 137.761719 129.335938 131.851562 138.675781 C 125.941406 148.019531 122.378906 158.707031 121.476562 169.792969 C 120.867188 177.246094 121.476562 184.722656 123.253906 191.925781 Z M 123.253906 191.925781 " fill-opacity="1" fill-rule="nonzero"/><g fill="#5e17eb" fill-opacity="1"><g transform="translate(39.580666, 275.99468)"><g><path d="M 31.8125 6.640625 L 26.078125 -0.21875 C 24.492188 0.175781 22.875 0.375 21.21875 0.375 C 17.695312 0.375 14.457031 -0.453125 11.5 -2.109375 C 8.550781 -3.765625 6.210938 -6.054688 4.484375 -8.984375 C 2.753906 -11.921875 1.890625 -15.242188 1.890625 -18.953125 C 1.890625 -22.628906 2.753906 -25.929688 4.484375 -28.859375 C 6.210938 -31.796875 8.550781 -34.09375 11.5 -35.75 C 14.457031 -37.40625 17.695312 -38.234375 21.21875 -38.234375 C 24.78125 -38.234375 28.03125 -37.40625 30.96875 -35.75 C 33.90625 -34.09375 36.226562 -31.796875 37.9375 -28.859375 C 39.644531 -25.929688 40.5 -22.628906 40.5 -18.953125 C 40.5 -15.609375 39.785156 -12.554688 38.359375 -9.796875 C 36.941406 -7.046875 35.007812 -4.804688 32.5625 -3.078125 L 41.203125 6.640625 Z M 9.671875 -18.953125 C 9.671875 -16.429688 10.15625 -14.21875 11.125 -12.3125 C 12.09375 -10.40625 13.445312 -8.9375 15.1875 -7.90625 C 16.9375 -6.882812 18.945312 -6.375 21.21875 -6.375 C 23.488281 -6.375 25.488281 -6.882812 27.21875 -7.90625 C 28.945312 -8.9375 30.296875 -10.40625 31.265625 -12.3125 C 32.234375 -14.21875 32.71875 -16.429688 32.71875 -18.953125 C 32.71875 -21.472656 32.234375 -23.675781 31.265625 -25.5625 C 30.296875 -27.457031 28.945312 -28.90625 27.21875 -29.90625 C 25.488281 -30.914062 23.488281 -31.421875 21.21875 -31.421875 C 18.945312 -31.421875 16.9375 -30.914062 15.1875 -29.90625 C 13.445312 -28.90625 12.09375 -27.457031 11.125 -25.5625 C 10.15625 -23.675781 9.671875 -21.472656 9.671875 -18.953125 Z M 9.671875 -18.953125 "/></g></g></g><g fill="#5e17eb" fill-opacity="1"><g transform="translate(82.069395, 275.99468)"><g><path d="M 11.171875 -37.6875 L 11.171875 -14.359375 C 11.171875 -11.804688 11.835938 -9.851562 13.171875 -8.5 C 14.503906 -7.15625 16.378906 -6.484375 18.796875 -6.484375 C 21.242188 -6.484375 23.128906 -7.15625 24.453125 -8.5 C 25.785156 -9.851562 26.453125 -11.804688 26.453125 -14.359375 L 26.453125 -37.6875 L 34.078125 -37.6875 L 34.078125 -14.421875 C 34.078125 -11.210938 33.382812 -8.5 32 -6.28125 C 30.613281 -4.070312 28.757812 -2.410156 26.4375 -1.296875 C 24.113281 -0.179688 21.53125 0.375 18.6875 0.375 C 15.875 0.375 13.320312 -0.179688 11.03125 -1.296875 C 8.75 -2.410156 6.941406 -4.070312 5.609375 -6.28125 C 4.285156 -8.5 3.625 -11.210938 3.625 -14.421875 L 3.625 -37.6875 Z M 11.171875 -37.6875 "/></g></g></g><g fill="#5e17eb" fill-opacity="1"><g transform="translate(119.69918, 275.99468)"><g><path d="M 11.28125 -37.6875 L 11.28125 0 L 3.71875 0 L 3.71875 -37.6875 Z M 11.28125 -37.6875 "/></g></g></g><g fill="#5e17eb" fill-opacity="1"><g transform="translate(134.707899, 275.99468)"><g><path d="M 11.453125 -6.375 L 28.40625 -6.375 L 28.40625 0 L 2.703125 0 L 2.703125 -5.828125 L 19.546875 -31.3125 L 2.703125 -31.3125 L 2.703125 -37.6875 L 28.40625 -37.6875 L 28.40625 -31.859375 Z M 11.453125 -6.375 "/></g></g></g><g fill="#5e17eb" fill-opacity="1"><g transform="translate(165.805111, 275.99468)"><g/></g></g><g fill="#5e17eb" fill-opacity="1"><g transform="translate(178.654307, 275.99468)"><g><path d="M 1.890625 -18.90625 C 1.890625 -22.613281 2.722656 -25.929688 4.390625 -28.859375 C 6.066406 -31.796875 8.351562 -34.082031 11.25 -35.71875 C 14.15625 -37.351562 17.40625 -38.171875 21 -38.171875 C 25.21875 -38.171875 28.910156 -37.09375 32.078125 -34.9375 C 35.242188 -32.78125 37.457031 -29.789062 38.71875 -25.96875 L 30.03125 -25.96875 C 29.164062 -27.769531 27.945312 -29.117188 26.375 -30.015625 C 24.8125 -30.921875 23.003906 -31.375 20.953125 -31.375 C 18.753906 -31.375 16.800781 -30.859375 15.09375 -29.828125 C 13.382812 -28.804688 12.050781 -27.359375 11.09375 -25.484375 C 10.144531 -23.617188 9.671875 -21.425781 9.671875 -18.90625 C 9.671875 -16.414062 10.144531 -14.222656 11.09375 -12.328125 C 12.050781 -10.441406 13.382812 -8.984375 15.09375 -7.953125 C 16.800781 -6.929688 18.753906 -6.421875 20.953125 -6.421875 C 23.003906 -6.421875 24.8125 -6.878906 26.375 -7.796875 C 27.945312 -8.722656 29.164062 -10.082031 30.03125 -11.875 L 38.71875 -11.875 C 37.457031 -8.03125 35.25 -5.035156 32.09375 -2.890625 C 28.945312 -0.742188 25.25 0.328125 21 0.328125 C 17.40625 0.328125 14.15625 -0.488281 11.25 -2.125 C 8.351562 -3.769531 6.066406 -6.050781 4.390625 -8.96875 C 2.722656 -11.882812 1.890625 -15.195312 1.890625 -18.90625 Z M 1.890625 -18.90625 "/></g></g></g><g fill="#5e17eb" fill-opacity="1"><g transform="translate(220.117257, 275.99468)"><g><path d="M 26.84375 -7.1875 L 11.828125 -7.1875 L 9.34375 0 L 1.40625 0 L 14.953125 -37.75 L 23.765625 -37.75 L 37.3125 0 L 29.328125 0 Z M 24.78125 -13.234375 L 19.328125 -29 L 13.875 -13.234375 Z M 24.78125 -13.234375 "/></g></g></g><g fill="#5e17eb" fill-opacity="1"><g transform="translate(258.772821, 275.99468)"><g><path d="M 44.8125 -37.6875 L 44.8125 0 L 37.265625 0 L 37.265625 -24.515625 L 27.15625 0 L 21.4375 0 L 11.28125 -24.515625 L 11.28125 0 L 3.71875 0 L 3.71875 -37.6875 L 12.3125 -37.6875 L 24.296875 -9.671875 L 36.28125 -37.6875 Z M 44.8125 -37.6875 "/></g></g></g><g fill="#5e17eb" fill-opacity="1"><g transform="translate(307.308218, 275.99468)"><g><path d="M 31.21875 -26.03125 C 31.21875 -24.007812 30.738281 -22.117188 29.78125 -20.359375 C 28.820312 -18.597656 27.328125 -17.175781 25.296875 -16.09375 C 23.265625 -15.007812 20.703125 -14.46875 17.609375 -14.46875 L 11.28125 -14.46875 L 11.28125 0 L 3.71875 0 L 3.71875 -37.6875 L 17.609375 -37.6875 C 20.523438 -37.6875 23.007812 -37.179688 25.0625 -36.171875 C 27.113281 -35.171875 28.648438 -33.785156 29.671875 -32.015625 C 30.703125 -30.253906 31.21875 -28.257812 31.21875 -26.03125 Z M 17.28125 -20.578125 C 19.363281 -20.578125 20.910156 -21.050781 21.921875 -22 C 22.929688 -22.957031 23.4375 -24.300781 23.4375 -26.03125 C 23.4375 -29.695312 21.382812 -31.53125 17.28125 -31.53125 L 11.28125 -31.53125 L 11.28125 -20.578125 Z M 17.28125 -20.578125 "/></g></g></g></svg>